<?xml version="1.0" standalone="no"?>
<!DOCTYPE svg PUBLIC "-//W3C//DTD SVG 20010904//EN"
 "http://www.w3.org/TR/2001/REC-SVG-20010904/DTD/svg10.dtd">
<svg version="1.0" xmlns="http://www.w3.org/2000/svg"
 width="304.000000pt" height="241.000000pt" viewBox="0 0 304.000000 241.000000"
 preserveAspectRatio="xMidYMid meet">

<g transform="translate(0.000000,241.000000) scale(0.100000,-0.100000)"
fill="#000000" stroke="none">
<path d="M1359 2237 c-79 -46 -209 -121 -289 -166 -80 -46 -155 -95 -167 -108
-23 -24 -23 -25 -23 -372 0 -318 2 -351 18 -369 20 -25 599 -362 620 -362 17
0 584 327 613 353 17 16 19 32 19 177 0 88 -3 160 -6 160 -3 0 -30 -15 -60
-32 l-54 -33 0 -90 c0 -58 -5 -97 -12 -107 -11 -14 -365 -225 -457 -272 -18
-10 -43 -15 -56 -12 -37 9 -458 256 -482 283 -23 24 -23 28 -23 301 0 231 3
281 15 299 8 12 57 45 108 74 50 29 152 88 225 131 73 43 143 80 157 84 25 6
39 -1 385 -200 63 -37 121 -74 128 -83 8 -12 12 -58 12 -145 0 -87 4 -128 11
-128 6 0 33 12 60 27 l50 26 -3 146 -3 146 -305 177 c-168 98 -312 178 -321
178 -8 0 -80 -37 -160 -83z"/>
<path d="M1325 1960 c-93 -54 -174 -106 -180 -114 -7 -11 -5 -20 5 -30 30 -30
345 -206 368 -206 13 0 82 34 153 75 71 41 131 75 134 75 3 0 5 -78 5 -172 l0
-173 -134 -78 c-74 -42 -145 -77 -158 -77 -25 0 -265 133 -285 158 -9 11 -13
52 -13 123 l0 107 -52 30 c-29 17 -56 28 -60 26 -10 -6 -10 -335 0 -350 14
-22 390 -234 413 -233 13 0 110 51 214 113 l190 112 0 244 0 244 -57 34 -58
34 -133 -76 c-80 -46 -144 -76 -161 -76 -34 0 -146 66 -146 85 0 17 119 85
148 85 12 0 32 -5 46 -11 20 -10 32 -7 75 17 28 15 50 32 48 38 -6 18 -140 94
-167 95 -14 0 -98 -42 -195 -99z"/>
<path d="M130 375 l0 -145 25 0 c24 0 25 3 25 60 l0 60 95 0 c88 0 98 2 120
25 29 29 34 88 9 123 -14 21 -22 22 -145 22 l-129 0 0 -145z m238 63 l-3 -33
-92 -3 -93 -3 0 36 0 35 96 0 95 0 -3 -32z"/>
<path d="M482 395 c4 -164 -1 -159 164 -163 l125 -4 -3 29 -3 28 -115 2 -115
1 -1 74 c-2 163 -1 158 -30 158 l-26 0 4 -125z"/>
<path d="M856 504 c-13 -12 -16 -38 -16 -122 0 -59 4 -112 8 -118 17 -26 56
-34 166 -34 l116 0 0 25 c0 23 -3 25 -52 25 -29 0 -83 3 -120 7 -67 6 -68 6
-68 34 l0 29 120 0 120 0 0 25 0 25 -120 0 -120 0 0 35 0 35 120 0 120 0 0 25
0 25 -129 0 c-104 0 -133 -3 -145 -16z"/>
<path d="M1212 508 c-8 -8 -12 -51 -12 -129 0 -96 3 -119 17 -130 11 -10 47
-14 125 -14 103 0 111 1 129 24 14 17 19 39 19 82 l0 59 -85 0 c-84 0 -85 0
-85 -25 0 -24 3 -25 60 -25 l60 0 0 -30 c0 -33 2 -33 -132 -34 l-58 -1 0 93 0
92 120 0 120 0 0 25 0 25 -133 0 c-90 0 -137 -4 -145 -12z"/>
<path d="M1550 375 l0 -145 118 0 c151 0 166 7 170 79 2 36 -1 57 -10 63 -10
8 -10 11 0 15 15 6 16 86 2 114 -10 17 -22 19 -145 19 l-135 0 0 -145z m240
60 l0 -36 -92 3 -93 3 -3 33 -3 32 95 0 96 0 0 -35z m0 -120 l0 -36 -92 3 -93
3 -3 33 -3 32 95 0 96 0 0 -35z"/>
<path d="M1910 398 c0 -68 4 -128 8 -135 15 -23 65 -33 173 -33 l109 0 0 25 0
24 -117 3 -118 3 -3 118 -3 117 -24 0 -25 0 0 -122z"/>
<path d="M2286 504 c-24 -23 -23 -236 1 -255 11 -10 47 -14 125 -14 105 0 111
1 130 25 17 21 19 36 16 126 -2 67 -8 107 -17 117 -19 24 -232 25 -255 1z
m222 -126 l-3 -93 -92 -3 -93 -3 0 96 0 95 95 0 96 0 -3 -92z"/>
<path d="M2636 498 c-12 -17 -16 -48 -16 -119 0 -141 2 -143 164 -147 l126 -4
0 26 0 25 -117 3 -118 3 -3 93 -3 92 121 0 120 0 0 25 0 25 -129 0 c-123 0
-131 -1 -145 -22z"/>
</g>
</svg>
