<svg id="svg" xmlns="http://www.w3.org/2000/svg" xmlns:xlink="http://www.w3.org/1999/xlink" width="400" height="443.2432432432432" viewBox="0, 0, 400,443.2432432432432"><g id="svgg"><path id="path0" d="M148.649 58.673 C 116.689 77.423,81.145 98.095,69.662 104.613 C 38.358 122.379,40.541 113.585,40.541 221.924 C 40.541 307.206,40.965 316.123,45.270 321.255 C 50.925 327.995,207.520 418.919,213.474 418.919 C 218.921 418.919,376.026 327.963,380.405 322.275 C 383.732 317.953,385.623 232.432,382.391 232.432 C 381.626 232.432,374.328 236.197,366.175 240.799 L 351.351 249.165 351.351 274.111 C 351.351 296.910,350.796 299.579,344.901 305.117 C 336.345 313.155,218.753 381.052,213.359 381.068 C 209.309 381.081,177.294 363.340,110.193 323.899 C 70.043 300.300,72.973 308.395,72.973 221.049 C 72.973 134.615,70.825 141.301,104.784 122.027 C 117.761 114.662,146.522 98.180,168.697 85.399 C 190.872 72.619,210.939 62.165,213.291 62.168 C 218.857 62.175,343.553 134.123,347.973 139.878 C 350.271 142.870,351.351 155.348,351.351 178.895 C 351.351 218.091,351.132 217.787,371.281 206.526 L 383.784 199.538 383.784 160.911 C 383.784 133.050,382.830 121.492,380.363 119.444 C 370.004 110.847,216.961 24.345,212.303 24.454 C 209.252 24.525,180.608 39.924,148.649 58.673 M160.811 121.519 C 97.229 158.598,97.124 152.742,162.040 190.410 C 215.389 221.366,210.956 221.100,254.229 195.946 C 273.408 184.797,289.728 175.676,290.496 175.676 C 291.264 175.676,291.882 196.655,291.871 222.297 L 291.850 268.919 255.543 289.865 C 211.460 315.297,214.576 315.234,173.003 291.533 C 130.456 267.277,132.432 270.039,132.432 234.842 L 132.432 205.852 118.343 197.717 C 99.537 186.859,99.994 185.870,100.041 237.322 C 100.091 291.861,93.739 282.587,155.724 318.616 C 218.078 354.859,208.930 354.911,271.622 317.956 L 322.973 287.687 322.973 221.679 L 322.973 155.672 307.446 146.460 L 291.920 137.248 256.007 157.813 C 214.656 181.492,210.894 182.104,188.867 168.723 C 168.863 156.571,168.992 153.842,190.125 142.024 C 208.376 131.818,214.713 130.632,225.283 135.448 C 232.650 138.805,260.556 126.279,258.634 120.479 C 257.020 115.607,220.729 95.000,213.514 94.858 C 209.667 94.782,186.969 106.264,160.811 121.519 " stroke="none" fill="#ffffff" fill-rule="evenodd"></path></g></svg>